<svg width="26" height="26" viewBox="0 0 26 26" fill="none" xmlns="http://www.w3.org/2000/svg">
<path d="M19.0806 15.5493C19.186 14.354 18.8631 13.1966 19.7461 12.3492L20.293 11.8243C21.0399 11.1058 21.4593 10.1324 21.4593 9.11748C21.4593 8.10259 21.0399 7.12916 20.293 6.41069L19.0673 5.23438L18.1843 6.08182C17.2025 6.10712 16.2273 6.48026 15.4761 7.20123L15.3377 7.3277C14.4562 8.1737 13.2915 8.69339 12.0496 8.79493C10.4021 8.92773 8.86021 9.61707 7.68728 10.7428C6.75813 11.6332 6.11415 12.7603 5.83155 13.991C5.54894 15.2216 5.63954 16.5042 6.09262 17.6869L5.64453 18.1169L7.32486 19.7296C7.96374 20.3432 8.72235 20.8301 9.55736 21.1622C10.3923 21.4943 11.2873 21.6653 12.1912 21.6653C13.0951 21.6653 13.9901 21.4943 14.825 21.1622C15.6601 20.8301 16.4187 20.3432 17.0576 19.7296C18.2239 18.6102 18.9421 17.1303 19.0806 15.5493Z" fill="#244C4E"/>
<path d="M16.2462 4.96546C16.9509 4.96598 17.6396 5.17546 18.2253 5.56742C18.811 5.95939 19.2675 6.51627 19.5372 7.16774C19.8069 7.81919 19.8775 8.53601 19.7404 9.22769C19.6032 9.91936 19.2642 10.5548 18.7664 11.0538L18.6417 11.1786C17.8533 11.9669 17.3697 13.0094 17.2767 14.1209C17.1512 15.5943 16.5098 16.9761 15.4653 18.0222C14.8946 18.5953 14.2165 19.0498 13.4698 19.3598C12.7231 19.6697 11.9226 19.8289 11.1142 19.8283C9.53904 19.8283 7.96396 19.2241 6.76296 18.0222C6.19183 17.4509 5.73875 16.7726 5.42964 16.026C5.12052 15.2794 4.96142 14.4791 4.96142 13.671C4.96142 12.8629 5.12052 12.0627 5.42964 11.3161C5.73875 10.5695 6.19183 9.89117 6.76296 9.31987C7.80759 8.27374 9.18866 7.63153 10.6613 7.50719C11.7704 7.41524 12.8139 6.92922 13.6014 6.14109L13.7261 6.0163C14.0555 5.68251 14.4479 5.41768 14.8806 5.23726C15.3133 5.05684 15.7776 4.96445 16.2462 4.96546ZM16.2462 4C15.0387 4 13.8968 4.47288 13.0436 5.32669L12.9255 5.45148C12.302 6.07542 11.4685 6.46291 10.5825 6.54172C8.88276 6.68622 7.28799 7.42838 6.08699 8.6303C5.42424 9.29066 4.89862 10.0757 4.54043 10.9403C4.18225 11.8049 3.99858 12.7318 4.00001 13.6678C4.00001 15.5724 4.74161 17.3588 6.08699 18.7052C7.43237 20.0517 9.21747 20.7938 11.1207 20.7938C13.0239 20.7938 14.809 20.0517 16.1544 18.7052C17.3554 17.5033 18.1035 15.9008 18.2479 14.2063C18.3213 13.32 18.7075 12.4889 19.3374 11.8616L19.4621 11.7368C19.8834 11.3165 20.2175 10.817 20.4449 10.2669C20.6725 9.7168 20.789 9.1271 20.7878 8.53174C20.7878 7.32329 20.3152 6.1805 19.4621 5.32669C18.6081 4.47551 17.4515 3.99834 16.2462 4Z" fill="#337D63"/>
<path d="M18.6452 11.1785L18.7698 11.0537C19.1008 10.7226 19.3634 10.3293 19.5425 9.8966C19.7217 9.46387 19.8138 9.00004 19.8138 8.53166C19.8138 8.06327 19.7217 7.59947 19.5425 7.16674C19.3634 6.73401 19.1008 6.34083 18.7698 6.00966C18.4389 5.67842 18.046 5.41566 17.6136 5.23639C17.1812 5.05712 16.7178 4.96484 16.2497 4.96484C15.7816 4.96484 15.3182 5.05712 14.8858 5.23639C14.4533 5.41566 14.0605 5.67842 13.7295 6.00966L13.6049 6.13445C12.8171 6.92346 11.7753 7.40747 10.6647 7.50054C9.19208 7.62488 7.81101 8.26706 6.76639 9.31327C6.19525 9.88456 5.74217 10.5629 5.43306 11.3094C5.12395 12.056 4.96484 12.8563 4.96484 13.6644C4.96484 14.4725 5.12395 15.2728 5.43306 16.0193C5.74217 16.7659 6.19525 17.4443 6.76639 18.0156C7.33726 18.5871 8.01508 19.0405 8.7611 19.3498C9.50713 19.6592 10.3067 19.8184 11.1142 19.8184C11.9218 19.8184 12.7214 19.6592 13.4675 19.3498C14.2134 19.0405 14.8913 18.5871 15.4621 18.0156C16.5075 16.9701 17.1492 15.588 17.2735 14.1143C17.3719 13.0109 17.8576 11.9666 18.6452 11.1785Z" fill="#89BA4F"/>
<path d="M18.6452 11.1785L18.7698 11.0537C19.1008 10.7226 19.3634 10.3293 19.5425 9.8966C19.7217 9.46387 19.8138 9.00004 19.8138 8.53166C19.8138 8.06327 19.7217 7.59947 19.5425 7.16674C19.3634 6.73401 19.1008 6.34083 18.7698 6.00966C18.4389 5.67842 18.046 5.41566 17.6136 5.23639C17.1812 5.05712 16.7178 4.96484 16.2497 4.96484C15.7816 4.96484 15.3182 5.05712 14.8858 5.23639C14.4533 5.41566 14.0605 5.67842 13.7295 6.00966L13.6049 6.13445C12.8171 6.92346 11.7753 7.40747 10.6647 7.50054C9.19208 7.62488 7.81101 8.26706 6.76639 9.31327C6.19525 9.88456 5.74217 10.5629 5.43306 11.3094C5.12395 12.056 4.96484 12.8563 4.96484 13.6644C4.96484 14.4725 5.12395 15.2728 5.43306 16.0193C5.74217 16.7659 6.19525 17.4443 6.76639 18.0156C7.33726 18.5871 8.01508 19.0405 8.7611 19.3498C9.50713 19.6592 10.3067 19.8184 11.1142 19.8184C11.9218 19.8184 12.7214 19.6592 13.4675 19.3498C14.2134 19.0405 14.8913 18.5871 15.4621 18.0156C16.5075 16.9701 17.1492 15.588 17.2735 14.1143C17.3719 13.0109 17.8576 11.9666 18.6452 11.1785Z" fill="#9EEA6C"/>
<path d="M11.4083 16.274C12.1672 16.274 12.895 15.9723 13.4316 15.4353C13.9682 14.8982 14.2697 14.1699 14.2697 13.4105C14.2697 12.651 13.9682 11.9226 13.4316 11.3856C12.895 10.8486 12.1672 10.5469 11.4083 10.5469C10.6494 10.5469 9.92158 10.8486 9.38496 11.3856C8.84834 11.9226 8.54688 12.651 8.54688 13.4105C8.54688 14.1699 8.84834 14.8982 9.38496 15.4353C9.92158 15.9723 10.6494 16.274 11.4083 16.274Z" fill="#244C4E"/>
</svg>
