<svg width="30" height="30" viewBox="0 0 30 30" fill="none" xmlns="http://www.w3.org/2000/svg">
<rect x="0.3" y="0.3" width="29.4" height="29.4" rx="14.7" fill="#C6FE1E"/>
<rect x="0.3" y="0.3" width="29.4" height="29.4" rx="14.7" stroke="#B3E910" stroke-width="0.6"/>
<mask id="mask0_845_82475" style="mask-type:luminance" maskUnits="userSpaceOnUse" x="5" y="8" width="20" height="15">
<path d="M24.0038 8H5.99805V23H24.0038V8Z" fill="white"/>
</mask>
<g mask="url(#mask0_845_82475)">
<path d="M12.9679 11.4606H12.9599C12.4637 11.3182 11.9387 11.603 11.7707 12.0734C11.585 12.579 11.8795 13.1582 12.3997 13.3182C13.6737 13.6798 14.2211 11.8542 12.9679 11.4606Z" fill="#00160D"/>
<path d="M23.8265 14.0425C22.1859 10.4505 16.9523 11.9369 16.4689 10.9961C15.0525 8.77368 12.4084 7.52568 9.54993 8.16888C9.10979 7.99288 7.59411 7.94488 6.6146 8.56088L7.20518 8.82168C7.25 8.84088 7.23719 8.83608 7.30281 8.86008C7.5701 8.96088 7.52368 8.93208 7.33162 9.03768C6.89148 9.29528 6.34251 9.59448 6 10.0441C6.0144 10.0649 6.75384 10.2425 6.75384 10.2425C6.76664 10.2457 6.90429 10.2601 6.87388 10.3209C4.45551 14.1385 8.5336 19.9001 10.5134 23.0009H16.2449C15.3598 21.4169 14.3483 19.2553 14.694 17.7881C14.7564 17.5225 14.8364 17.1849 15.1629 17.1401C15.952 17.0137 17.0083 17.0249 17.7605 16.9401C17.7605 16.9401 17.7643 16.9401 17.7717 16.9401C17.9318 16.9321 21.8498 16.4345 22.7877 18.8761C22.8678 19.1001 23.0518 18.9545 23.1254 18.8073C23.8249 17.4169 24.2762 15.2281 23.8297 14.0441L23.8265 14.0425ZM17.5013 12.8633C17.226 13.3545 17.0387 13.9929 16.9907 14.5497C16.9651 14.9033 17.0019 15.2521 17.0371 15.6057C17.0563 15.8009 17.0579 16.0473 16.9011 16.1753C16.765 16.2905 16.5393 16.3017 16.3121 16.3177C15.1965 16.3129 12.4757 16.3177 11.4273 15.6041L11.4209 15.5993C9.89564 14.6697 9.07938 12.5705 9.98527 10.9401C10.2782 10.3865 10.8175 10.0265 11.4321 9.89048C12.2228 9.70968 13.0935 9.84408 13.7993 10.2137C14.0874 10.3593 14.4315 10.5513 14.694 10.7721C15.2141 11.2265 15.6591 11.6985 16.3409 11.8441C16.6546 11.9337 16.9811 11.9209 17.2948 11.9849C17.8822 12.1257 17.7349 12.4601 17.4997 12.8601L17.5013 12.8633Z" fill="#00160D"/>
</g>
</svg>
